# xmcd
#
# Track frame offsets: 
#        150
#        14807
#        29896
#        49996
#        61073
#        92372
#        108831
#        127400
#        140285
#        166770
#        206207
#
# Disc length: 2996 seconds
#
# Revision: 2
# Processed by: cddbd v1.5.2PL0 Copyright (c) Steve Scherf et al.
# Submitted via: ExactAudioCopy v1.1
#
DISCID=9f0bb20b
DTITLE=Cuby and Blizzards - Boom Boom Bang (In The Spirit Of John Lee Ho
DTITLE=oker)
DYEAR=2003
DGENRE=Blues
TTITLE0=Boom Boom
TTITLE1=Sugar Mama
TTITLE2=Liquor Blues
TTITLE3=Black Snake
TTITLE4=Faceless Voices
TTITLE5=Dead Drunk
TTITLE6=One Bourbon, One Scotch, One Beer
TTITLE7=I Can't Quit You Baby
TTITLE8=Wreckless Life
TTITLE9=Last Minute Flight
TTITLE10=Warning From The Ice
EXTD=
EXTT0=
EXTT1=
EXTT2=
EXTT3=
EXTT4=
EXTT5=
EXTT6=
EXTT7=
EXTT8=
EXTT9=
EXTT10=
PLAYORDER=
